<?xml version="1.0" standalone="no"?>
<!DOCTYPE svg PUBLIC "-//W3C//DTD SVG 20010904//EN"
 "http://www.w3.org/TR/2001/REC-SVG-20010904/DTD/svg10.dtd">
<svg version="1.0" xmlns="http://www.w3.org/2000/svg"
 width="2000.000000pt" height="2000.000000pt" viewBox="0 0 2000.000000 2000.000000"
 preserveAspectRatio="xMidYMid meet">
<metadata>
Created by potrace 1.14, written by Peter Selinger 2001-2017
</metadata>
<g transform="translate(0.000000,2000.000000) scale(0.100000,-0.100000)"
fill="#000000" stroke="none">
<path d="M2488 15289 l2022 -2024 0 -2347 0 -2348 -1992 -2 c-1884 -3 -1995
-4 -2025 -21 -126 -68 -182 -203 -141 -339 16 -53 86 -130 145 -159 l48 -24
1983 -3 1982 -2 0 -245 0 -245 -1967 0 c-1309 0 -1980 -4 -2005 -10 -59 -17
-130 -71 -163 -124 -25 -42 -31 -62 -34 -128 -3 -69 0 -85 23 -133 29 -58 64
-93 130 -128 l41 -22 1987 -3 1988 -2 0 -245 0 -245 -1982 -2 -1983 -3 -46
-23 c-103 -50 -159 -139 -159 -249 0 -86 30 -155 90 -206 85 -72 -85 -67 2107
-67 l1973 0 0 -1512 c0 -999 4 -1525 10 -1550 20 -70 70 -130 140 -166 60 -31
71 -34 135 -30 44 3 85 13 111 26 48 24 107 87 131 139 17 36 18 275 23 4952
l5 4913 5000 -4994 c2750 -2747 5016 -5003 5035 -5013 56 -29 157 -32 215 -6
72 32 107 62 139 121 37 68 45 148 21 221 -17 52 -220 257 -6054 6092 -3551
3553 -6022 6032 -6001 6022 19 -10 3602 -1880 7963 -4157 7358 -3843 7932
-4140 7986 -4145 110 -10 216 48 266 148 l25 48 0 2261 0 2260 -2360 0 -2360
0 -2 -904 -3 -905 -7220 3771 c-3971 2073 -7227 3773 -7235 3775 -8 3 895
-905 2008 -2018z m16632 -5990 c0 -1373 -3 -1720 -12 -1716 -7 3 -823 428
-1813 945 l-1800 941 -3 775 -2 776 1815 0 1815 0 0 -1721z"/>
<path d="M5750 11561 c-50 -16 -87 -41 -124 -81 -77 -85 -71 25 -74 -1327 l-2
-1213 1212 0 1213 0 50 24 c56 26 119 90 143 145 22 53 20 156 -5 212 -26 58
-83 115 -142 143 -46 21 -52 21 -983 24 l-938 3 -2 942 -3 942 -22 41 c-29 54
-75 99 -127 126 -44 23 -153 33 -196 19z"/>
<path d="M5750 8431 c-49 -15 -87 -40 -124 -81 -77 -85 -71 25 -74 -1327 l-2
-1213 1733 0 1734 0 62 31 c89 45 139 119 148 219 11 113 -48 215 -155 267
l-57 28 -1457 3 -1458 2 0 923 c0 597 -4 935 -10 959 -31 110 -147 199 -258
197 -32 0 -68 -4 -82 -8z"/>
<path d="M5715 5286 c-27 -12 -69 -43 -92 -69 -77 -84 -73 -3 -73 -1344 l0
-1193 2248 0 c2492 0 2297 -5 2380 66 123 104 124 298 2 407 -86 79 117 72
-2097 75 l-1983 2 -2 943 -3 942 -30 54 c-31 56 -88 106 -148 128 -56 20 -146
16 -202 -11z"/>
</g>
</svg>
