<?xml version="1.0" encoding="UTF-8"?><svg id="a" xmlns="http://www.w3.org/2000/svg" viewBox="0 0 4422.72062 905.21319"><polyline points="4402.72062 725.21319 4330.72062 689.21319 4258.72062 725.21319 4186.72062 689.21319 4114.72062 725.21319 4042.72062 689.21319 3970.72062 725.21319" style="fill:none; stroke:#fff; stroke-linecap:round; stroke-miterlimit:10; stroke-width:40px;"/><polyline points="3106.83927 724.74801 3034.83927 688.74801 2962.83927 724.74801 2890.83927 688.74801 2818.83927 724.74801 2746.83927 688.74801 2674.83927 724.74801" style="fill:none; stroke:#fff; stroke-linecap:round; stroke-miterlimit:10; stroke-width:40px;"/><polyline points="2674.99475 724.91762 2602.99475 688.91762 2530.99475 724.91762 2458.99475 688.91762 2386.99475 724.91762 2314.99475 688.91762 2242.99475 724.91762" style="fill:none; stroke:#fff; stroke-linecap:round; stroke-miterlimit:10; stroke-width:40px;"/><line x1="4150.48749" y1="248.06622" x2="4186.48749" y2="284.06622" style="fill:none; stroke:#fff; stroke-linecap:round; stroke-miterlimit:10; stroke-width:10px;"/><line x1="4150.48749" y1="284.06622" x2="4186.48749" y2="248.06622" style="fill:none; stroke:#fff; stroke-linecap:round; stroke-miterlimit:10; stroke-width:10px;"/><line x1="3520.54874" y1="329.21943" x2="3556.54874" y2="365.21943" style="fill:none; stroke:#fff; stroke-linecap:round; stroke-miterlimit:10; stroke-width:10px;"/><line x1="3520.54874" y1="365.21943" x2="3556.54874" y2="329.21943" style="fill:none; stroke:#fff; stroke-linecap:round; stroke-miterlimit:10; stroke-width:10px;"/><line x1="3566.02212" y1="149.23688" x2="3602.02212" y2="185.23688" style="fill:none; stroke:#fff; stroke-linecap:round; stroke-miterlimit:10; stroke-width:10px;"/><line x1="3566.02212" y1="185.23688" x2="3602.02212" y2="149.23688" style="fill:none; stroke:#fff; stroke-linecap:round; stroke-miterlimit:10; stroke-width:10px;"/><line x1="622.7471" y1="581.70634" x2="551.08789" y2="437.21319" style="fill:none; stroke:#fff; stroke-linecap:round; stroke-miterlimit:10; stroke-width:20px;"/><line x1="623.08789" y1="581.21319" x2="695.08789" y2="437.21319" style="fill:none; stroke:#fff; stroke-linecap:round; stroke-miterlimit:10; stroke-width:20px;"/><line x1="587.08789" y1="509.21319" x2="605.08789" y2="437.21319" style="fill:none; stroke:#fff; stroke-linecap:round; stroke-miterlimit:10; stroke-width:20px;"/><line x1="659.08789" y1="509.21319" x2="641.46164" y2="437.54396" style="fill:none; stroke:#fff; stroke-linecap:round; stroke-miterlimit:10; stroke-width:20px;"/><line x1="644.15412" y1="547.46324" x2="785.08789" y2="563.21319" style="fill:none; stroke:#fff; stroke-linecap:round; stroke-miterlimit:10; stroke-width:20px;"/><line x1="623.08789" y1="581.21319" x2="758.08789" y2="644.21319" style="fill:none; stroke:#fff; stroke-linecap:round; stroke-miterlimit:10; stroke-width:20px;"/><line x1="839.08789" y1="725.21319" x2="785.08789" y2="563.21319" style="fill:none; stroke:#fff; stroke-linecap:round; stroke-miterlimit:10; stroke-width:20px;"/><line x1="731.08789" y1="725.21319" x2="785.08789" y2="563.21319" style="fill:none; stroke:#fff; stroke-linecap:round; stroke-miterlimit:10; stroke-width:20px;"/><line x1="596.08789" y1="725.21319" x2="659.08789" y2="599.21319" style="fill:none; stroke:#fff; stroke-linecap:round; stroke-miterlimit:10; stroke-width:20px;"/><g><line x1="955.37983" y1="581.56953" x2="920.08789" y2="509.21319" style="fill:none; stroke:#fff; stroke-linecap:round; stroke-miterlimit:10; stroke-width:20px;"/><line x1="955.72062" y1="581.07638" x2="992.08789" y2="509.21319" style="fill:none; stroke:#fff; stroke-linecap:round; stroke-miterlimit:10; stroke-width:20px;"/><line x1="976.78685" y1="547.32644" x2="1117.72062" y2="563.07638" style="fill:none; stroke:#fff; stroke-linecap:round; stroke-miterlimit:10; stroke-width:20px;"/><line x1="955.72062" y1="581.07638" x2="1091.08789" y2="626.21319" style="fill:none; stroke:#fff; stroke-linecap:round; stroke-miterlimit:10; stroke-width:20px;"/><line x1="1171.72062" y1="725.07638" x2="1117.72062" y2="563.07638" style="fill:none; stroke:#fff; stroke-linecap:round; stroke-miterlimit:10; stroke-width:20px;"/><line x1="1063.72062" y1="725.07638" x2="1117.72062" y2="563.07638" style="fill:none; stroke:#fff; stroke-linecap:round; stroke-miterlimit:10; stroke-width:20px;"/><line x1="928.72062" y1="725.07638" x2="991.72062" y2="599.07638" style="fill:none; stroke:#fff; stroke-linecap:round; stroke-miterlimit:10; stroke-width:20px;"/><line x1="920.08789" y1="509.21319" x2="992.93529" y2="509.43715" style="fill:none; stroke:#fff; stroke-linecap:round; stroke-miterlimit:10; stroke-width:20px;"/></g><polyline points="2242.9637 725.70463 2170.9637 689.70463 2098.9637 725.70463" style="fill:none; stroke:#fff; stroke-linecap:round; stroke-miterlimit:10; stroke-width:40px;"/><line x1="3430.67723" y1="5" x2="3466.67723" y2="41" style="fill:none; stroke:#fff; stroke-linecap:round; stroke-miterlimit:10; stroke-width:10px;"/><line x1="3430.67723" y1="41" x2="3466.67723" y2="5" style="fill:none; stroke:#fff; stroke-linecap:round; stroke-miterlimit:10; stroke-width:10px;"/><polyline points="3971.06935 725.60786 3899.06935 689.60786 3827.06935 725.60786 3755.06935 689.60786 3683.06935 725.60786 3611.06935 689.60786 3539.06935 725.60786" style="fill:none; stroke:#fff; stroke-linecap:round; stroke-miterlimit:10; stroke-width:40px;"/><polyline points="3538.76434 725.68161 3466.76434 689.68161 3394.76434 725.68161 3322.76434 689.68161 3250.76434 725.68161 3178.76434 689.68161 3106.76434 725.68161" style="fill:none; stroke:#fff; stroke-linecap:round; stroke-miterlimit:10; stroke-width:40px;"/><polyline points="2098.28205 724.8288 2026.28205 688.8288 1954.28205 724.8288 1882.28205 688.8288 1810.28205 724.8288" style="fill:none; stroke:#fff; stroke-linecap:round; stroke-miterlimit:10; stroke-width:40px;"/><line x1="1326.27308" y1="631.19836" x2="1303.11347" y2="583.71601" style="fill:none; stroke:#fff; stroke-linecap:round; stroke-miterlimit:10; stroke-width:15px;"/><line x1="1326.49671" y1="630.87474" x2="1350.36198" y2="583.71601" style="fill:none; stroke:#fff; stroke-linecap:round; stroke-miterlimit:10; stroke-width:15px;"/><line x1="1340.32099" y1="608.72704" x2="1432.80585" y2="619.06262" style="fill:none; stroke:#fff; stroke-linecap:round; stroke-miterlimit:10; stroke-width:15px;"/><line x1="1326.49671" y1="630.87474" x2="1415.32868" y2="660.49484" style="fill:none; stroke:#fff; stroke-linecap:round; stroke-miterlimit:10; stroke-width:15px;"/><line x1="1468.24223" y1="725.37176" x2="1432.80585" y2="619.06262" style="fill:none; stroke:#fff; stroke-linecap:round; stroke-miterlimit:10; stroke-width:15px;"/><line x1="1397.36947" y1="725.37176" x2="1432.80585" y2="619.06262" style="fill:none; stroke:#fff; stroke-linecap:round; stroke-miterlimit:10; stroke-width:15px;"/><line x1="1308.77852" y1="725.37176" x2="1350.12097" y2="642.68687" style="fill:none; stroke:#fff; stroke-linecap:round; stroke-miterlimit:10; stroke-width:15px;"/><line x1="1303.11347" y1="583.71601" x2="1350.91807" y2="583.86298" style="fill:none; stroke:#fff; stroke-linecap:round; stroke-miterlimit:10; stroke-width:15px;"/><line x1="1542.96028" y1="630.63028" x2="1519.80067" y2="583.14793" style="fill:none; stroke:#fff; stroke-linecap:round; stroke-miterlimit:10; stroke-width:15px;"/><line x1="1543.18391" y1="630.30666" x2="1567.04918" y2="583.14793" style="fill:none; stroke:#fff; stroke-linecap:round; stroke-miterlimit:10; stroke-width:15px;"/><line x1="1557.00818" y1="608.15896" x2="1649.49305" y2="618.49453" style="fill:none; stroke:#fff; stroke-linecap:round; stroke-miterlimit:10; stroke-width:15px;"/><line x1="1543.18391" y1="630.30666" x2="1632.01587" y2="659.92675" style="fill:none; stroke:#fff; stroke-linecap:round; stroke-miterlimit:10; stroke-width:15px;"/><line x1="1684.92943" y1="724.80367" x2="1649.49305" y2="618.49453" style="fill:none; stroke:#fff; stroke-linecap:round; stroke-miterlimit:10; stroke-width:15px;"/><line x1="1614.05667" y1="724.80367" x2="1649.49305" y2="618.49453" style="fill:none; stroke:#fff; stroke-linecap:round; stroke-miterlimit:10; stroke-width:15px;"/><line x1="1525.46572" y1="724.80367" x2="1566.80816" y2="642.11879" style="fill:none; stroke:#fff; stroke-linecap:round; stroke-miterlimit:10; stroke-width:15px;"/><line x1="1519.80067" y1="583.14793" x2="1567.60527" y2="583.2949" style="fill:none; stroke:#fff; stroke-linecap:round; stroke-miterlimit:10; stroke-width:15px;"/><line x1="1370.11064" y1="266.66353" x2="1406.11064" y2="302.66353" style="fill:none; stroke:#fff; stroke-linecap:round; stroke-miterlimit:10; stroke-width:10px;"/><line x1="1370.11064" y1="302.66353" x2="1406.11064" y2="266.66353" style="fill:none; stroke:#fff; stroke-linecap:round; stroke-miterlimit:10; stroke-width:10px;"/><line x1="496.76576" y1="41.42665" x2="532.76576" y2="77.42665" style="fill:none; stroke:#fff; stroke-linecap:round; stroke-miterlimit:10; stroke-width:10px;"/><line x1="496.76576" y1="77.42665" x2="532.76576" y2="41.42665" style="fill:none; stroke:#fff; stroke-linecap:round; stroke-miterlimit:10; stroke-width:10px;"/><polyline points="452 725.16005 380 689.16005 308 725.16005 236 689.16005 164 725.16005 92 689.16005 20 725.16005" style="fill:none; stroke:#fff; stroke-linecap:round; stroke-miterlimit:10; stroke-width:40px;"/></svg>