<?xml version="1.0" encoding="UTF-8"?><svg id="a" xmlns="http://www.w3.org/2000/svg" viewBox="0 0 1131.16148 504.306"><line x1="697.05467" y1="152.6858" x2="697.05467" y2="455.61924" style="fill:none; stroke:#e5e8e7; stroke-linecap:round; stroke-miterlimit:10; stroke-width:20px;"/><polyline points="1121.16148 334.44586 613.74797 69.37911 999.9881 455.61924" style="fill:none; stroke:#e5e8e7; stroke-linecap:round; stroke-miterlimit:10; stroke-width:20px;"/><polyline points="1121.16148 334.44586 1121.16148 213.27249 999.9881 213.27249 999.9881 266.28584" style="fill:none; stroke:#e5e8e7; stroke-linecap:round; stroke-miterlimit:10; stroke-width:20px;"/><line x1="697.05467" y1="360.95254" x2="575.8813" y2="360.95254" style="fill:none; stroke:#e5e8e7; stroke-linecap:round; stroke-miterlimit:10; stroke-width:20px;"/><line x1="697.05467" y1="330.6592" x2="575.8813" y2="330.6592" style="fill:none; stroke:#e5e8e7; stroke-linecap:round; stroke-miterlimit:10; stroke-width:20px;"/><line x1="697.05467" y1="300.36585" x2="575.8813" y2="300.36585" style="fill:none; stroke:#e5e8e7; stroke-linecap:round; stroke-miterlimit:10; stroke-width:20px;"/><polyline points="787.9347 273.85918 727.34801 273.85918 727.34801 213.27249" style="fill:none; stroke:#e5e8e7; stroke-linecap:round; stroke-miterlimit:10; stroke-width:20px;"/><polyline points="818.22804 364.73921 727.34801 364.73921 727.34801 304.15252" style="fill:none; stroke:#e5e8e7; stroke-linecap:round; stroke-miterlimit:10; stroke-width:20px;"/><polyline points="848.52139 455.61924 727.34801 455.61924 727.34801 395.03255" style="fill:none; stroke:#e5e8e7; stroke-linecap:round; stroke-miterlimit:10; stroke-width:20px;"/><line x1="984.00235" y1="56.59052" x2="999.14902" y2="71.73719" style="fill:none; stroke:#e5e8e7; stroke-linecap:round; stroke-miterlimit:10; stroke-width:10px;"/><line x1="984.00235" y1="71.73719" x2="999.14902" y2="56.59052" style="fill:none; stroke:#e5e8e7; stroke-linecap:round; stroke-miterlimit:10; stroke-width:10px;"/><line x1="920.24386" y1="103.42202" x2="935.39054" y2="118.5687" style="fill:none; stroke:#e5e8e7; stroke-linecap:round; stroke-miterlimit:10; stroke-width:10px;"/><line x1="920.24386" y1="118.5687" x2="935.39054" y2="103.42202" style="fill:none; stroke:#e5e8e7; stroke-linecap:round; stroke-miterlimit:10; stroke-width:10px;"/><polyline points="386.69018 84.633 448.24464 23.07855 509.79909 84.633" style="fill:none; stroke:#e5e8e7; stroke-linecap:round; stroke-miterlimit:10; stroke-width:20px;"/><polyline points="386.74076 146.11235 448.29522 84.5579 509.84967 146.11235" style="fill:none; stroke:#e5e8e7; stroke-linecap:round; stroke-miterlimit:10; stroke-width:20px;"/><polyline points="386.74076 207.66681 448.29522 146.11235 509.84967 207.66681" style="fill:none; stroke:#e5e8e7; stroke-linecap:round; stroke-miterlimit:10; stroke-width:20px;"/><polyline points="201.89684 146.0547 263.4513 84.50025 325.00575 146.0547" style="fill:none; stroke:#e5e8e7; stroke-linecap:round; stroke-miterlimit:10; stroke-width:20px;"/><polyline points="201.94742 207.53405 263.50188 145.9796 325.05633 207.53405" style="fill:none; stroke:#e5e8e7; stroke-linecap:round; stroke-miterlimit:10; stroke-width:20px;"/><polyline points="201.94742 269.0885 263.50188 207.53405 325.05633 269.0885" style="fill:none; stroke:#e5e8e7; stroke-linecap:round; stroke-miterlimit:10; stroke-width:20px;"/><line x1="448.24464" y1="146.18746" x2="448.24464" y2="494.306" style="fill:none; stroke:#e5e8e7; stroke-linecap:round; stroke-miterlimit:10; stroke-width:20px;"/><line x1="263.58127" y1="207.74191" x2="263.58127" y2="494.306" style="fill:none; stroke:#e5e8e7; stroke-linecap:round; stroke-miterlimit:10; stroke-width:20px;"/><polyline points="637.04461 463.09168 606.26738 447.70307 575.49015 463.09168 544.71293 447.70307 513.9357 463.09168" style="fill:none; stroke:#e5e8e7; stroke-linecap:round; stroke-miterlimit:10; stroke-width:20px;"/><polyline points="10 75.69659 71.55445 14.14214 133.10891 75.69659" style="fill:none; stroke:#e5e8e7; stroke-linecap:round; stroke-miterlimit:10; stroke-width:20px;"/><polyline points="10.05058 137.17594 71.60503 75.62148 133.15949 137.17594" style="fill:none; stroke:#e5e8e7; stroke-linecap:round; stroke-miterlimit:10; stroke-width:20px;"/><polyline points="10.05058 198.73039 71.60503 137.17594 133.15949 198.73039" style="fill:none; stroke:#e5e8e7; stroke-linecap:round; stroke-miterlimit:10; stroke-width:20px;"/><line x1="71.55445" y1="137.25105" x2="71.55445" y2="494.306" style="fill:none; stroke:#e5e8e7; stroke-linecap:round; stroke-miterlimit:10; stroke-width:20px;"/></svg>