<svg xmlns="http://www.w3.org/2000/svg" viewBox="0 0 4432.22106 1778.65995"><polyline points="1316.221 460.595 1460.221 316.595 1604.221 460.595" style="fill:none;stroke:#fff;stroke-linecap:round;stroke-miterlimit:10;stroke-width:40px"/><polyline points="1316.339 604.419 1460.339 460.419 1604.339 604.419" style="fill:none;stroke:#fff;stroke-linecap:round;stroke-miterlimit:10;stroke-width:40px"/><polyline points="1316.339 748.419 1460.339 604.419 1604.339 748.419" style="fill:none;stroke:#fff;stroke-linecap:round;stroke-miterlimit:10;stroke-width:40px"/><polyline points="883.917 604.284 1027.917 460.284 1171.917 604.284" style="fill:none;stroke:#fff;stroke-linecap:round;stroke-miterlimit:10;stroke-width:40px"/><polyline points="884.035 748.109 1028.035 604.109 1172.035 748.109" style="fill:none;stroke:#fff;stroke-linecap:round;stroke-miterlimit:10;stroke-width:40px"/><polyline points="884.035 892.109 1028.035 748.109 1172.035 892.109" style="fill:none;stroke:#fff;stroke-linecap:round;stroke-miterlimit:10;stroke-width:40px"/><line x1="2036.22106" y1="604.59484" x2="2036.22106" y2="1324.59484" style="fill:none;stroke:#fff;stroke-linecap:round;stroke-miterlimit:10;stroke-width:40px"/><polyline points="3044.221 1036.595 1838.221 406.595 2756.221 1324.595" style="fill:none;stroke:#fff;stroke-linecap:round;stroke-miterlimit:10;stroke-width:40px"/><polyline points="3044.221 1036.595 3044.221 748.595 2756.221 748.595 2756.221 874.595" style="fill:none;stroke:#fff;stroke-linecap:round;stroke-miterlimit:10;stroke-width:40px"/><line x1="2036.22106" y1="1099.59484" x2="1748.22106" y2="1099.59484" style="fill:none;stroke:#fff;stroke-linecap:round;stroke-miterlimit:10;stroke-width:40px"/><line x1="2036.22106" y1="1027.59484" x2="1748.22106" y2="1027.59484" style="fill:none;stroke:#fff;stroke-linecap:round;stroke-miterlimit:10;stroke-width:40px"/><line x1="2036.22106" y1="955.59484" x2="1748.22106" y2="955.59484" style="fill:none;stroke:#fff;stroke-linecap:round;stroke-miterlimit:10;stroke-width:40px"/><polyline points="2252.221 892.595 2108.221 892.595 2108.221 748.595" style="fill:none;stroke:#fff;stroke-linecap:round;stroke-miterlimit:10;stroke-width:40px"/><polyline points="2324.221 1108.595 2108.221 1108.595 2108.221 964.595" style="fill:none;stroke:#fff;stroke-linecap:round;stroke-miterlimit:10;stroke-width:40px"/><polyline points="2396.221 1324.595 2108.221 1324.595 2108.221 1180.595" style="fill:none;stroke:#fff;stroke-linecap:round;stroke-miterlimit:10;stroke-width:40px"/><polyline points="3476.221 1324.595 3404.221 1288.595 3332.221 1324.595 3260.221 1288.595 3188.221 1324.595 3116.221 1288.595 3044.221 1324.595" style="fill:none;stroke:#fff;stroke-linecap:round;stroke-miterlimit:10;stroke-width:40px"/><polyline points="2036.34 1756.13 1964.34 1720.13 1892.34 1756.13 1820.34 1720.13 1748.34 1756.13 1676.34 1720.13 1604.34 1756.13" style="fill:none;stroke:#fff;stroke-linecap:round;stroke-miterlimit:10;stroke-width:40px"/><line x1="1460.22106" y1="604.59484" x2="1460.22106" y2="1756.59484" style="fill:none;stroke:#fff;stroke-linecap:round;stroke-miterlimit:10;stroke-width:40px"/><line x1="1028.22106" y1="748.59484" x2="1028.22106" y2="1756.59484" style="fill:none;stroke:#fff;stroke-linecap:round;stroke-miterlimit:10;stroke-width:40px"/><polyline points="884.495 1756.299 812.495 1720.299 740.495 1756.299 668.495 1720.299 596.495 1756.299 524.495 1720.299 452.495 1756.299" style="fill:none;stroke:#fff;stroke-linecap:round;stroke-miterlimit:10;stroke-width:40px"/><polyline points="1316.453 1756.339 1244.453 1720.339 1172.453 1756.339" style="fill:none;stroke:#fff;stroke-linecap:round;stroke-miterlimit:10;stroke-width:40px"/><line x1="3242.22106" y1="586.59484" x2="3278.22106" y2="622.59484" style="fill:none;stroke:#fff;stroke-linecap:round;stroke-miterlimit:10;stroke-width:20px"/><line x1="3242.22106" y1="622.59484" x2="3278.22106" y2="586.59484" style="fill:none;stroke:#fff;stroke-linecap:round;stroke-miterlimit:10;stroke-width:20px"/><line x1="1585.98793" y1="154.44787" x2="1621.98793" y2="190.44787" style="fill:none;stroke:#fff;stroke-linecap:round;stroke-miterlimit:10;stroke-width:20px"/><line x1="1585.98793" y1="190.44787" x2="1621.98793" y2="154.44787" style="fill:none;stroke:#fff;stroke-linecap:round;stroke-miterlimit:10;stroke-width:20px"/><line x1="578.04918" y1="658.60108" x2="614.04918" y2="694.60108" style="fill:none;stroke:#fff;stroke-linecap:round;stroke-miterlimit:10;stroke-width:20px"/><line x1="578.04918" y1="694.60108" x2="614.04918" y2="658.60108" style="fill:none;stroke:#fff;stroke-linecap:round;stroke-miterlimit:10;stroke-width:20px"/><line x1="2954.52256" y1="298.61853" x2="2990.52256" y2="334.61853" style="fill:none;stroke:#fff;stroke-linecap:round;stroke-miterlimit:10;stroke-width:20px"/><line x1="2954.52256" y1="334.61853" x2="2990.52256" y2="298.61853" style="fill:none;stroke:#fff;stroke-linecap:round;stroke-miterlimit:10;stroke-width:20px"/><polyline points="1883.467 1324.199 1811.467 1288.199 1739.467 1324.199 1667.467 1288.199 1595.467 1324.199" style="fill:none;stroke:#fff;stroke-linecap:round;stroke-miterlimit:10;stroke-width:40px"/><polyline points="3476.917 172.284 3620.917 28.284 3764.917 172.284" style="fill:none;stroke:#fff;stroke-linecap:round;stroke-miterlimit:10;stroke-width:40px"/><polyline points="3477.035 316.109 3621.035 172.109 3765.035 316.109" style="fill:none;stroke:#fff;stroke-linecap:round;stroke-miterlimit:10;stroke-width:40px"/><polyline points="3477.035 460.109 3621.035 316.109 3765.035 460.109" style="fill:none;stroke:#fff;stroke-linecap:round;stroke-miterlimit:10;stroke-width:40px"/><line x1="3621.22106" y1="316.59484" x2="3621.22106" y2="1324.59484" style="fill:none;stroke:#fff;stroke-linecap:round;stroke-miterlimit:10;stroke-width:40px"/><line x1="3836.22106" y1="1036.59484" x2="3836.22106" y2="1324.59484" style="fill:none;stroke:#fff;stroke-linecap:round;stroke-miterlimit:10;stroke-width:40px"/><line x1="3836.22106" y1="1252.59484" x2="4412.22106" y2="1252.59484" style="fill:none;stroke:#fff;stroke-linecap:round;stroke-miterlimit:10;stroke-width:40px"/><line x1="3836.22106" y1="1180.59484" x2="4412.22106" y2="1180.59484" style="fill:none;stroke:#fff;stroke-linecap:round;stroke-miterlimit:10;stroke-width:40px"/><line x1="3836.22106" y1="1108.59484" x2="4412.22106" y2="1108.59484" style="fill:none;stroke:#fff;stroke-linecap:round;stroke-miterlimit:10;stroke-width:40px"/><line x1="4412.22106" y1="1036.59484" x2="4412.22106" y2="1324.59484" style="fill:none;stroke:#fff;stroke-linecap:round;stroke-miterlimit:10;stroke-width:40px"/><line x1="857.56185" y1="1541.08799" x2="929.22106" y2="1396.59484" style="fill:none;stroke:#fff;stroke-linecap:round;stroke-miterlimit:10;stroke-width:20px"/><line x1="857.22106" y1="1540.59484" x2="785.22106" y2="1396.59484" style="fill:none;stroke:#fff;stroke-linecap:round;stroke-miterlimit:10;stroke-width:20px"/><line x1="893.22106" y1="1468.59484" x2="875.22106" y2="1396.59484" style="fill:none;stroke:#fff;stroke-linecap:round;stroke-miterlimit:10;stroke-width:20px"/><line x1="821.22106" y1="1468.59484" x2="838.84731" y2="1396.92561" style="fill:none;stroke:#fff;stroke-linecap:round;stroke-miterlimit:10;stroke-width:20px"/><line x1="836.15484" y1="1506.8449" x2="695.22106" y2="1522.59484" style="fill:none;stroke:#fff;stroke-linecap:round;stroke-miterlimit:10;stroke-width:20px"/><line x1="857.22106" y1="1540.59484" x2="722.22106" y2="1603.59484" style="fill:none;stroke:#fff;stroke-linecap:round;stroke-miterlimit:10;stroke-width:20px"/><line x1="641.22106" y1="1684.59484" x2="695.22106" y2="1522.59484" style="fill:none;stroke:#fff;stroke-linecap:round;stroke-miterlimit:10;stroke-width:20px"/><line x1="749.22106" y1="1684.59484" x2="695.22106" y2="1522.59484" style="fill:none;stroke:#fff;stroke-linecap:round;stroke-miterlimit:10;stroke-width:20px"/><line x1="884.22106" y1="1684.59484" x2="821.22106" y2="1558.59484" style="fill:none;stroke:#fff;stroke-linecap:round;stroke-miterlimit:10;stroke-width:20px"/><line x1="524.92912" y1="1540.95119" x2="560.22106" y2="1468.59484" style="fill:none;stroke:#fff;stroke-linecap:round;stroke-miterlimit:10;stroke-width:20px"/><line x1="524.58833" y1="1540.45803" x2="488.22106" y2="1468.59484" style="fill:none;stroke:#fff;stroke-linecap:round;stroke-miterlimit:10;stroke-width:20px"/><line x1="503.52211" y1="1506.70809" x2="362.58833" y2="1522.45803" style="fill:none;stroke:#fff;stroke-linecap:round;stroke-miterlimit:10;stroke-width:20px"/><line x1="524.58833" y1="1540.45803" x2="389.22106" y2="1585.59484" style="fill:none;stroke:#fff;stroke-linecap:round;stroke-miterlimit:10;stroke-width:20px"/><line x1="308.58833" y1="1684.45803" x2="362.58833" y2="1522.45803" style="fill:none;stroke:#fff;stroke-linecap:round;stroke-miterlimit:10;stroke-width:20px"/><line x1="416.58833" y1="1684.45803" x2="362.58833" y2="1522.45803" style="fill:none;stroke:#fff;stroke-linecap:round;stroke-miterlimit:10;stroke-width:20px"/><line x1="551.58833" y1="1684.45803" x2="488.58833" y2="1558.45803" style="fill:none;stroke:#fff;stroke-linecap:round;stroke-miterlimit:10;stroke-width:20px"/><line x1="560.22106" y1="1468.59484" x2="487.37366" y2="1468.81881" style="fill:none;stroke:#fff;stroke-linecap:round;stroke-miterlimit:10;stroke-width:20px"/><line x1="164.22106" y1="676.59484" x2="164.22106" y2="1756.59484" style="fill:none;stroke:#fff;stroke-linecap:round;stroke-miterlimit:10;stroke-width:40px"/><polyline points="20 514.766 164 370.766 308 514.766" style="fill:none;stroke:#fff;stroke-linecap:round;stroke-miterlimit:10;stroke-width:40px"/><polyline points="20.118 658.59 164.118 514.59 308.118 658.59" style="fill:none;stroke:#fff;stroke-linecap:round;stroke-miterlimit:10;stroke-width:40px"/><polyline points="20.118 802.59 164.118 658.59 308.118 802.59" style="fill:none;stroke:#fff;stroke-linecap:round;stroke-miterlimit:10;stroke-width:40px"/><polyline points="452.464 1757.086 380.464 1721.086 308.464 1757.086" style="fill:none;stroke:#fff;stroke-linecap:round;stroke-miterlimit:10;stroke-width:40px"/><line x1="488.17767" y1="334.38165" x2="524.17767" y2="370.38165" style="fill:none;stroke:#fff;stroke-linecap:round;stroke-miterlimit:10;stroke-width:20px"/><line x1="488.17767" y1="370.38165" x2="524.17767" y2="334.38165" style="fill:none;stroke:#fff;stroke-linecap:round;stroke-miterlimit:10;stroke-width:20px"/></svg>