<?xml version="1.0" encoding="UTF-8"?><svg id="a" xmlns="http://www.w3.org/2000/svg" viewBox="0 0 4432.22106 1778.65995"><polyline points="1316.22106 460.59484 1460.22106 316.59484 1604.22106 460.59484" style="fill:none; stroke:#e5e8e7; stroke-linecap:round; stroke-miterlimit:10; stroke-width:40px;"/><polyline points="1316.33939 604.41914 1460.33939 460.41914 1604.33939 604.41914" style="fill:none; stroke:#e5e8e7; stroke-linecap:round; stroke-miterlimit:10; stroke-width:40px;"/><polyline points="1316.33939 748.41914 1460.33939 604.41914 1604.33939 748.41914" style="fill:none; stroke:#e5e8e7; stroke-linecap:round; stroke-miterlimit:10; stroke-width:40px;"/><polyline points="883.917 604.28427 1027.917 460.28427 1171.917 604.28427" style="fill:none; stroke:#e5e8e7; stroke-linecap:round; stroke-miterlimit:10; stroke-width:40px;"/><polyline points="884.03532 748.10857 1028.03532 604.10857 1172.03532 748.10857" style="fill:none; stroke:#e5e8e7; stroke-linecap:round; stroke-miterlimit:10; stroke-width:40px;"/><polyline points="884.03532 892.10857 1028.03532 748.10857 1172.03532 892.10857" style="fill:none; stroke:#e5e8e7; stroke-linecap:round; stroke-miterlimit:10; stroke-width:40px;"/><line x1="2036.22106" y1="604.59484" x2="2036.22106" y2="1324.59484" style="fill:none; stroke:#e5e8e7; stroke-linecap:round; stroke-miterlimit:10; stroke-width:40px;"/><polyline points="3044.22106 1036.59484 1838.22106 406.59484 2756.22106 1324.59484" style="fill:none; stroke:#e5e8e7; stroke-linecap:round; stroke-miterlimit:10; stroke-width:40px;"/><polyline points="3044.22106 1036.59484 3044.22106 748.59484 2756.22106 748.59484 2756.22106 874.59484" style="fill:none; stroke:#e5e8e7; stroke-linecap:round; stroke-miterlimit:10; stroke-width:40px;"/><line x1="2036.22106" y1="1099.59484" x2="1748.22106" y2="1099.59484" style="fill:none; stroke:#e5e8e7; stroke-linecap:round; stroke-miterlimit:10; stroke-width:40px;"/><line x1="2036.22106" y1="1027.59484" x2="1748.22106" y2="1027.59484" style="fill:none; stroke:#e5e8e7; stroke-linecap:round; stroke-miterlimit:10; stroke-width:40px;"/><line x1="2036.22106" y1="955.59484" x2="1748.22106" y2="955.59484" style="fill:none; stroke:#e5e8e7; stroke-linecap:round; stroke-miterlimit:10; stroke-width:40px;"/><polyline points="2252.22106 892.59484 2108.22106 892.59484 2108.22106 748.59484" style="fill:none; stroke:#e5e8e7; stroke-linecap:round; stroke-miterlimit:10; stroke-width:40px;"/><polyline points="2324.22106 1108.59484 2108.22106 1108.59484 2108.22106 964.59484" style="fill:none; stroke:#e5e8e7; stroke-linecap:round; stroke-miterlimit:10; stroke-width:40px;"/><polyline points="2396.22106 1324.59484 2108.22106 1324.59484 2108.22106 1180.59484" style="fill:none; stroke:#e5e8e7; stroke-linecap:round; stroke-miterlimit:10; stroke-width:40px;"/><polyline points="3476.22106 1324.59484 3404.22106 1288.59484 3332.22106 1324.59484 3260.22106 1288.59484 3188.22106 1324.59484 3116.22106 1288.59484 3044.22106 1324.59484" style="fill:none; stroke:#e5e8e7; stroke-linecap:round; stroke-miterlimit:10; stroke-width:40px;"/><polyline points="2036.33971 1756.12966 1964.33971 1720.12966 1892.33971 1756.12966 1820.33971 1720.12966 1748.33971 1756.12966 1676.33971 1720.12966 1604.33971 1756.12966" style="fill:none; stroke:#e5e8e7; stroke-linecap:round; stroke-miterlimit:10; stroke-width:40px;"/><line x1="1460.22106" y1="604.59484" x2="1460.22106" y2="1756.59484" style="fill:none; stroke:#e5e8e7; stroke-linecap:round; stroke-miterlimit:10; stroke-width:40px;"/><line x1="1028.22106" y1="748.59484" x2="1028.22106" y2="1756.59484" style="fill:none; stroke:#e5e8e7; stroke-linecap:round; stroke-miterlimit:10; stroke-width:40px;"/><polyline points="884.49519 1756.29927 812.49519 1720.29927 740.49519 1756.29927 668.49519 1720.29927 596.49519 1756.29927 524.49519 1720.29927 452.49519 1756.29927" style="fill:none; stroke:#e5e8e7; stroke-linecap:round; stroke-miterlimit:10; stroke-width:40px;"/><polyline points="1316.45291 1756.33933 1244.45291 1720.33933 1172.45291 1756.33933" style="fill:none; stroke:#e5e8e7; stroke-linecap:round; stroke-miterlimit:10; stroke-width:40px;"/><line x1="3242.22106" y1="586.59484" x2="3278.22106" y2="622.59484" style="fill:none; stroke:#e5e8e7; stroke-linecap:round; stroke-miterlimit:10; stroke-width:20px;"/><line x1="3242.22106" y1="622.59484" x2="3278.22106" y2="586.59484" style="fill:none; stroke:#e5e8e7; stroke-linecap:round; stroke-miterlimit:10; stroke-width:20px;"/><line x1="1585.98793" y1="154.44787" x2="1621.98793" y2="190.44787" style="fill:none; stroke:#e5e8e7; stroke-linecap:round; stroke-miterlimit:10; stroke-width:20px;"/><line x1="1585.98793" y1="190.44787" x2="1621.98793" y2="154.44787" style="fill:none; stroke:#e5e8e7; stroke-linecap:round; stroke-miterlimit:10; stroke-width:20px;"/><line x1="578.04918" y1="658.60108" x2="614.04918" y2="694.60108" style="fill:none; stroke:#e5e8e7; stroke-linecap:round; stroke-miterlimit:10; stroke-width:20px;"/><line x1="578.04918" y1="694.60108" x2="614.04918" y2="658.60108" style="fill:none; stroke:#e5e8e7; stroke-linecap:round; stroke-miterlimit:10; stroke-width:20px;"/><line x1="2954.52256" y1="298.61853" x2="2990.52256" y2="334.61853" style="fill:none; stroke:#e5e8e7; stroke-linecap:round; stroke-miterlimit:10; stroke-width:20px;"/><line x1="2954.52256" y1="334.61853" x2="2990.52256" y2="298.61853" style="fill:none; stroke:#e5e8e7; stroke-linecap:round; stroke-miterlimit:10; stroke-width:20px;"/><polyline points="1883.4669 1324.19864 1811.4669 1288.19864 1739.4669 1324.19864 1667.4669 1288.19864 1595.4669 1324.19864" style="fill:none; stroke:#e5e8e7; stroke-linecap:round; stroke-miterlimit:10; stroke-width:40px;"/><polyline points="3476.917 172.28427 3620.917 28.28427 3764.917 172.28427" style="fill:none; stroke:#e5e8e7; stroke-linecap:round; stroke-miterlimit:10; stroke-width:40px;"/><polyline points="3477.03532 316.10857 3621.03532 172.10857 3765.03532 316.10857" style="fill:none; stroke:#e5e8e7; stroke-linecap:round; stroke-miterlimit:10; stroke-width:40px;"/><polyline points="3477.03532 460.10857 3621.03532 316.10857 3765.03532 460.10857" style="fill:none; stroke:#e5e8e7; stroke-linecap:round; stroke-miterlimit:10; stroke-width:40px;"/><line x1="3621.22106" y1="316.59484" x2="3621.22106" y2="1324.59484" style="fill:none; stroke:#e5e8e7; stroke-linecap:round; stroke-miterlimit:10; stroke-width:40px;"/><line x1="3836.22106" y1="1036.59484" x2="3836.22106" y2="1324.59484" style="fill:none; stroke:#e5e8e7; stroke-linecap:round; stroke-miterlimit:10; stroke-width:40px;"/><line x1="3836.22106" y1="1252.59484" x2="4412.22106" y2="1252.59484" style="fill:none; stroke:#e5e8e7; stroke-linecap:round; stroke-miterlimit:10; stroke-width:40px;"/><line x1="3836.22106" y1="1180.59484" x2="4412.22106" y2="1180.59484" style="fill:none; stroke:#e5e8e7; stroke-linecap:round; stroke-miterlimit:10; stroke-width:40px;"/><line x1="3836.22106" y1="1108.59484" x2="4412.22106" y2="1108.59484" style="fill:none; stroke:#e5e8e7; stroke-linecap:round; stroke-miterlimit:10; stroke-width:40px;"/><line x1="4412.22106" y1="1036.59484" x2="4412.22106" y2="1324.59484" style="fill:none; stroke:#e5e8e7; stroke-linecap:round; stroke-miterlimit:10; stroke-width:40px;"/><g><line x1="857.56185" y1="1541.08799" x2="929.22106" y2="1396.59484" style="fill:none; stroke:#e5e8e7; stroke-linecap:round; stroke-miterlimit:10; stroke-width:20px;"/><line x1="857.22106" y1="1540.59484" x2="785.22106" y2="1396.59484" style="fill:none; stroke:#e5e8e7; stroke-linecap:round; stroke-miterlimit:10; stroke-width:20px;"/><line x1="893.22106" y1="1468.59484" x2="875.22106" y2="1396.59484" style="fill:none; stroke:#e5e8e7; stroke-linecap:round; stroke-miterlimit:10; stroke-width:20px;"/><line x1="821.22106" y1="1468.59484" x2="838.84731" y2="1396.92561" style="fill:none; stroke:#e5e8e7; stroke-linecap:round; stroke-miterlimit:10; stroke-width:20px;"/><line x1="836.15484" y1="1506.8449" x2="695.22106" y2="1522.59484" style="fill:none; stroke:#e5e8e7; stroke-linecap:round; stroke-miterlimit:10; stroke-width:20px;"/><line x1="857.22106" y1="1540.59484" x2="722.22106" y2="1603.59484" style="fill:none; stroke:#e5e8e7; stroke-linecap:round; stroke-miterlimit:10; stroke-width:20px;"/><line x1="641.22106" y1="1684.59484" x2="695.22106" y2="1522.59484" style="fill:none; stroke:#e5e8e7; stroke-linecap:round; stroke-miterlimit:10; stroke-width:20px;"/><line x1="749.22106" y1="1684.59484" x2="695.22106" y2="1522.59484" style="fill:none; stroke:#e5e8e7; stroke-linecap:round; stroke-miterlimit:10; stroke-width:20px;"/><line x1="884.22106" y1="1684.59484" x2="821.22106" y2="1558.59484" style="fill:none; stroke:#e5e8e7; stroke-linecap:round; stroke-miterlimit:10; stroke-width:20px;"/></g><g><line x1="524.92912" y1="1540.95119" x2="560.22106" y2="1468.59484" style="fill:none; stroke:#e5e8e7; stroke-linecap:round; stroke-miterlimit:10; stroke-width:20px;"/><line x1="524.58833" y1="1540.45803" x2="488.22106" y2="1468.59484" style="fill:none; stroke:#e5e8e7; stroke-linecap:round; stroke-miterlimit:10; stroke-width:20px;"/><line x1="503.52211" y1="1506.70809" x2="362.58833" y2="1522.45803" style="fill:none; stroke:#e5e8e7; stroke-linecap:round; stroke-miterlimit:10; stroke-width:20px;"/><line x1="524.58833" y1="1540.45803" x2="389.22106" y2="1585.59484" style="fill:none; stroke:#e5e8e7; stroke-linecap:round; stroke-miterlimit:10; stroke-width:20px;"/><line x1="308.58833" y1="1684.45803" x2="362.58833" y2="1522.45803" style="fill:none; stroke:#e5e8e7; stroke-linecap:round; stroke-miterlimit:10; stroke-width:20px;"/><line x1="416.58833" y1="1684.45803" x2="362.58833" y2="1522.45803" style="fill:none; stroke:#e5e8e7; stroke-linecap:round; stroke-miterlimit:10; stroke-width:20px;"/><line x1="551.58833" y1="1684.45803" x2="488.58833" y2="1558.45803" style="fill:none; stroke:#e5e8e7; stroke-linecap:round; stroke-miterlimit:10; stroke-width:20px;"/><line x1="560.22106" y1="1468.59484" x2="487.37366" y2="1468.81881" style="fill:none; stroke:#e5e8e7; stroke-linecap:round; stroke-miterlimit:10; stroke-width:20px;"/></g><line x1="164.22106" y1="676.59484" x2="164.22106" y2="1756.59484" style="fill:none; stroke:#e5e8e7; stroke-linecap:round; stroke-miterlimit:10; stroke-width:40px;"/><polyline points="20 514.76579 164 370.76579 308 514.76579" style="fill:none; stroke:#e5e8e7; stroke-linecap:round; stroke-miterlimit:10; stroke-width:40px;"/><polyline points="20.11832 658.59009 164.11832 514.59009 308.11832 658.59009" style="fill:none; stroke:#e5e8e7; stroke-linecap:round; stroke-miterlimit:10; stroke-width:40px;"/><polyline points="20.11832 802.59009 164.11832 658.59009 308.11832 802.59009" style="fill:none; stroke:#e5e8e7; stroke-linecap:round; stroke-miterlimit:10; stroke-width:40px;"/><polyline points="452.46414 1757.08628 380.46414 1721.08628 308.46414 1757.08628" style="fill:none; stroke:#e5e8e7; stroke-linecap:round; stroke-miterlimit:10; stroke-width:40px;"/><line x1="488.17767" y1="334.38165" x2="524.17767" y2="370.38165" style="fill:none; stroke:#e5e8e7; stroke-linecap:round; stroke-miterlimit:10; stroke-width:20px;"/><line x1="488.17767" y1="370.38165" x2="524.17767" y2="334.38165" style="fill:none; stroke:#e5e8e7; stroke-linecap:round; stroke-miterlimit:10; stroke-width:20px;"/></svg>