<?xml version="1.0" encoding="UTF-8"?><svg id="a" xmlns="http://www.w3.org/2000/svg" viewBox="0 0 2128.06123 1488.28427"><polyline points="884.22106 172.28427 1028.22106 28.28427 1172.22106 172.28427" style="fill:none; stroke:#e5e8e7; stroke-linecap:round; stroke-miterlimit:10; stroke-width:40px;"/><polyline points="884.33939 316.10857 1028.33939 172.10857 1172.33939 316.10857" style="fill:none; stroke:#e5e8e7; stroke-linecap:round; stroke-miterlimit:10; stroke-width:40px;"/><polyline points="884.33939 460.10857 1028.33939 316.10857 1172.33939 460.10857" style="fill:none; stroke:#e5e8e7; stroke-linecap:round; stroke-miterlimit:10; stroke-width:40px;"/><polyline points="451.917 315.9737 595.917 171.9737 739.917 315.9737" style="fill:none; stroke:#e5e8e7; stroke-linecap:round; stroke-miterlimit:10; stroke-width:40px;"/><polyline points="452.03532 459.798 596.03532 315.798 740.03532 459.798" style="fill:none; stroke:#e5e8e7; stroke-linecap:round; stroke-miterlimit:10; stroke-width:40px;"/><polyline points="452.03532 603.798 596.03532 459.798 740.03532 603.798" style="fill:none; stroke:#e5e8e7; stroke-linecap:round; stroke-miterlimit:10; stroke-width:40px;"/><line x1="1028.22106" y1="316.28427" x2="1028.22106" y2="1468.28427" style="fill:none; stroke:#e5e8e7; stroke-linecap:round; stroke-miterlimit:10; stroke-width:40px;"/><line x1="596.22106" y1="460.28427" x2="596.22106" y2="1468.28427" style="fill:none; stroke:#e5e8e7; stroke-linecap:round; stroke-miterlimit:10; stroke-width:40px;"/><line x1="164.22106" y1="388.28427" x2="164.22106" y2="1468.28427" style="fill:none; stroke:#e5e8e7; stroke-linecap:round; stroke-miterlimit:10; stroke-width:40px;"/><polyline points="20 226.45522 164 82.45522 308 226.45522" style="fill:none; stroke:#e5e8e7; stroke-linecap:round; stroke-miterlimit:10; stroke-width:40px;"/><polyline points="20.11832 370.27952 164.11832 226.27952 308.11832 370.27952" style="fill:none; stroke:#e5e8e7; stroke-linecap:round; stroke-miterlimit:10; stroke-width:40px;"/><polyline points="20.11832 514.27952 164.11832 370.27952 308.11832 514.27952" style="fill:none; stroke:#e5e8e7; stroke-linecap:round; stroke-miterlimit:10; stroke-width:40px;"/><g><line x1="1771.36682" y1="748.16886" x2="1712.47744" y2="540.13963" style="fill:none; stroke:#e5e8e7; stroke-linecap:round; stroke-miterlimit:10; stroke-width:20px;"/><line x1="2118.06123" y1="650.43448" x2="2059.17185" y2="442.40525" style="fill:none; stroke:#e5e8e7; stroke-linecap:round; stroke-miterlimit:10; stroke-width:20px;"/><line x1="2059.07743" y1="442.42614" x2="1712.63902" y2="540.30582" style="fill:none; stroke:#e5e8e7; stroke-linecap:round; stroke-miterlimit:10; stroke-width:20px;"/><line x1="2117.80523" y1="650.28919" x2="1771.36682" y2="748.16886" style="fill:none; stroke:#e5e8e7; stroke-linecap:round; stroke-miterlimit:10; stroke-width:20px;"/><line x1="1915.22212" y1="595.2975" x2="1712.63902" y2="540.30582" style="fill:none; stroke:#e5e8e7; stroke-linecap:round; stroke-miterlimit:10; stroke-width:20px;"/><line x1="2059.07743" y1="442.42614" x2="1915.22212" y2="595.2975" style="fill:none; stroke:#e5e8e7; stroke-linecap:round; stroke-miterlimit:10; stroke-width:20px;"/></g><g><path d="M344.22106,855.28427c1.242,.55103,2.80194,1.14722,4.6665,1.78394" style="fill:none; stroke:#e5e8e7; stroke-linecap:round; stroke-miterlimit:10; stroke-width:20px;"/><path d="M394.94097,868.42221c185.24927,37.86719,783.87604,105.78296,831.28009-139.13794,15.39172-79.52417-90-171-225-171-109.92871,0-198.22168,376.88892,72,360,144-9,72-18,207-81,95.45947-44.54761-36,0,189-108,55.07056-26.43384,112.05981-55.79028,187.5155-68.23511" style="fill:none; stroke:#e5e8e7; stroke-dasharray:0 0 9.88672 47.45628; stroke-linecap:round; stroke-miterlimit:10; stroke-width:20px;"/><path d="M1680.2445,657.80942c1.65015-.18335,3.30896-.3584,4.97656-.52515" style="fill:none; stroke:#e5e8e7; stroke-linecap:round; stroke-miterlimit:10; stroke-width:20px;"/></g></svg>